<svg width="126" height="40" viewBox="0 0 126 40" fill="none" xmlns="http://www.w3.org/2000/svg">
<g id="Airbnb_logo 2" clip-path="url(#clip0_17825_1373)">
<path id="logo 1" d="M66.8543 10.4552C66.8543 11.8405 65.7063 12.974 64.3032 12.974C62.9002 12.974 61.7522 11.8405 61.7522 10.4552C61.7522 9.06985 62.8364 7.93639 64.3032 7.93639C65.7701 7.96788 66.8543 9.10134 66.8543 10.4552ZM56.3951 15.4928C56.3951 15.7132 56.3951 16.1225 56.3951 16.1225C56.3951 16.1225 55.1833 14.5797 52.6004 14.5797C48.3594 14.5797 45.0112 17.7912 45.0112 22.1991C45.0112 26.607 48.2956 29.8184 52.6004 29.8184C55.2152 29.8184 56.3951 28.2442 56.3951 28.2442V28.9054C56.3951 29.2202 56.6183 29.4406 56.9372 29.4406H60.0941V14.9575C60.0941 14.9575 57.1923 14.9575 56.9372 14.9575C56.6183 14.9575 56.3951 15.2409 56.3951 15.4928ZM56.3951 24.7808C55.8211 25.6309 54.6412 26.3551 53.2382 26.3551C50.7509 26.3551 48.8377 24.8123 48.8377 22.1991C48.8377 19.5858 50.7509 18.0431 53.2382 18.0431C54.6094 18.0431 55.853 18.7987 56.3951 19.6173V24.7808ZM62.4538 14.9575H66.2165V29.4406H62.4538V14.9575ZM118.417 14.5797C115.834 14.5797 114.622 16.1225 114.622 16.1225V7.99937H110.859V29.4721C110.859 29.4721 113.761 29.4721 114.016 29.4721C114.335 29.4721 114.558 29.1887 114.558 28.9368V28.2757C114.558 28.2757 115.77 29.8499 118.353 29.8499C122.594 29.8499 125.942 26.607 125.942 22.2306C125.974 17.8227 122.626 14.5797 118.417 14.5797ZM117.811 26.3236C116.376 26.3236 115.228 25.5994 114.654 24.7493V19.5858C115.228 18.8302 116.503 18.0116 117.811 18.0116C120.298 18.0116 122.211 19.5543 122.211 22.1676C122.211 24.7808 120.298 26.3236 117.811 26.3236ZM108.946 20.8452V29.4721H105.183V21.286C105.183 18.8932 104.418 17.9171 102.282 17.9171C101.134 17.9171 99.9856 18.4838 99.2522 19.3339V29.4406H95.4895V14.9575H98.455C98.7739 14.9575 98.9971 15.2409 98.9971 15.4928V16.1225C100.081 14.989 101.548 14.5797 102.983 14.5797C104.609 14.5797 105.981 15.052 107.097 15.9651C108.436 17.0355 108.946 18.4209 108.946 20.8452ZM86.4015 14.5797C83.8185 14.5797 82.6068 16.1225 82.6068 16.1225V7.99937H78.8441V29.4721C78.8441 29.4721 81.7458 29.4721 82.0009 29.4721C82.3198 29.4721 82.543 29.1887 82.543 28.9368V28.2757C82.543 28.2757 83.7548 29.8499 86.3377 29.8499C90.5788 29.8499 93.927 26.607 93.927 22.2306C93.9907 17.8227 90.6744 14.5797 86.4015 14.5797ZM85.7956 26.3236C84.3606 26.3236 83.2127 25.5994 82.6387 24.7493V19.5858C83.2127 18.8302 84.4882 18.0116 85.7956 18.0116C88.2828 18.0116 90.1961 19.5543 90.1961 22.1676C90.1961 24.7808 88.2828 26.3236 85.7956 26.3236ZM75.6234 14.5797C76.7714 14.5797 77.3453 14.7686 77.3453 14.7686V18.2005C77.3453 18.2005 74.2203 17.1615 72.2752 19.3654V29.5036H68.5124V14.9575C68.5124 14.9575 71.4142 14.9575 71.6693 14.9575C71.9882 14.9575 72.2114 15.2409 72.2114 15.4928V16.1225C72.9448 15.3039 74.4754 14.5797 75.6234 14.5797ZM36.7203 28.1497C36.529 27.6774 36.3377 27.1737 36.1464 26.7644C35.8275 26.0717 35.5086 25.4105 35.2535 24.8123L35.2216 24.7808C32.543 18.9876 29.6412 13.1314 26.58 7.36967L26.4525 7.14927C26.1336 6.58254 25.8147 5.95285 25.5277 5.32315C25.1451 4.63048 24.7624 3.90632 24.1247 3.21365C22.881 1.67089 21.0953 0.820801 19.1821 0.820801C17.2369 0.820801 15.4831 1.67089 14.1757 3.1192C13.6017 3.81187 13.1553 4.53602 12.7726 5.22869C12.4537 5.85839 12.1349 6.4566 11.8479 7.05482L11.7203 7.27521C8.72288 13.0684 5.78921 18.9246 3.07875 24.6864L3.04686 24.7493C2.75987 25.379 2.47288 26.0087 2.154 26.7014C1.96268 27.1107 1.77135 27.583 1.58002 28.0868C1.06982 29.5036 0.910381 30.8574 1.10171 32.2428C1.51625 35.1394 3.49329 37.5637 6.17186 38.6342C7.19227 39.0435 8.24457 39.2639 9.32875 39.2639C9.64763 39.2639 10.0303 39.2324 10.3492 39.2009C11.6247 39.0435 12.964 38.6342 14.2395 37.8786C15.8338 36.997 17.3645 35.7061 19.0864 33.88C20.8083 35.7376 22.3708 36.997 23.9333 37.8786C25.2088 38.6027 26.5481 39.0435 27.8236 39.2009C28.1425 39.2324 28.5252 39.2639 28.8441 39.2639C29.9282 39.2639 31.0443 39.075 32.0009 38.6342C34.7433 37.5637 36.6566 35.0764 37.0711 32.2428C37.39 30.9204 37.2305 29.5665 36.7203 28.1497ZM19.1183 30.1333C17.0137 27.52 15.6425 25.0327 15.1642 22.9547C14.9729 22.0731 14.941 21.286 15.0367 20.5933C15.1004 19.9636 15.3555 19.4284 15.6744 18.9876C16.4078 17.9486 17.6515 17.2874 19.1183 17.2874C20.5851 17.2874 21.8606 17.9171 22.5622 18.9876C22.881 19.4599 23.1043 19.9951 23.1999 20.5933C23.3275 21.286 23.2637 22.1046 23.0724 22.9547C22.5941 25.0327 21.2229 27.4885 19.1183 30.1333ZM34.6795 31.9594C34.3925 33.9744 33.0532 35.7061 31.14 36.4617C30.2152 36.8396 29.1948 36.9655 28.1744 36.8396C27.1859 36.7136 26.2293 36.4303 25.2088 35.832C23.8058 35.0764 22.4027 33.88 20.7446 32.0853C23.3275 28.9683 24.89 26.1032 25.464 23.5529C25.7509 22.3565 25.7828 21.286 25.6553 20.2785C25.4958 19.3025 25.1451 18.4209 24.603 17.6652C23.3912 15.9336 21.3504 14.9261 19.0864 14.9261C16.8224 14.9261 14.7816 15.9651 13.5698 17.6652C13.0277 18.4209 12.677 19.3339 12.5175 20.2785C12.3581 21.286 12.39 22.388 12.7088 23.5529C13.2828 26.1032 14.9091 28.9998 17.4282 32.1168C15.8338 33.88 14.3989 35.0764 12.964 35.8635C11.9435 36.4303 10.9869 36.7451 9.99839 36.871C8.94609 36.997 7.92569 36.8396 7.03283 36.4932C5.11956 35.7376 3.74839 33.9744 3.49329 31.9909C3.36574 31.0149 3.4614 30.0703 3.84405 28.9998C3.97161 28.622 4.16293 28.2442 4.35426 27.7719C4.64125 27.1422 4.92824 26.5125 5.24712 25.8513L5.279 25.7884C7.95757 20.0581 10.8594 14.1704 13.8568 8.47164L13.9844 8.25124C14.3032 7.68452 14.6221 7.05482 14.9091 6.48809C15.228 5.85839 15.5787 5.29166 15.9933 4.7879C16.8224 3.87484 17.9066 3.37108 19.1183 3.37108C20.33 3.37108 21.4142 3.87484 22.2433 4.7879C22.6578 5.29166 23.0086 5.85839 23.3275 6.48809C23.6463 7.05482 23.9652 7.68452 24.2522 8.25124L24.3798 8.47164C27.3453 14.2019 30.2471 20.0896 32.9257 25.8198V25.8513C33.2446 26.481 33.4997 27.1737 33.8185 27.7719C34.0099 28.2442 34.2012 28.622 34.3287 28.9998C34.7114 29.9758 34.839 30.9519 34.6795 31.9594Z" fill="#244D4D"/>
</g>
<defs>
<clipPath id="clip0_17825_1373">
<rect width="125" height="39" fill="white" transform="translate(0.976562 0.486084)"/>
</clipPath>
</defs>
</svg>
