<svg width="25" height="25" viewBox="0 0 25 25" fill="none" xmlns="http://www.w3.org/2000/svg">
<g id="bed (1) 1" clip-path="url(#clip0_17864_1675)">
<g id="Group">
<path id="Vector" d="M2.45861 13.5138H22.4752C23.3002 13.5138 23.9689 12.8451 23.9689 12.0201C23.9689 11.1951 23.3002 10.5263 22.4752 10.5263H2.45861C1.63361 10.5263 0.964844 11.1951 0.964844 12.0201C0.964797 12.8451 1.63361 13.5138 2.45861 13.5138Z" fill="#666666"/>
<path id="Vector_2" d="M13.9625 7.30435C13.5265 7.30435 13.1719 7.65901 13.1719 8.09499V9.12001H19.2909V8.09499C19.2909 7.65901 18.9362 7.30435 18.5002 7.30435H13.9625Z" fill="#666666"/>
<path id="Vector_3" d="M4.23928 8.09505C4.23928 6.88366 5.22478 5.89816 6.43617 5.89816H10.9739C11.5504 5.89816 12.0754 6.12166 12.4677 6.48616C12.86 6.12166 13.385 5.89816 13.9614 5.89816H18.4992C19.7106 5.89816 20.6961 6.88366 20.6961 8.09505V9.12006H22.9784V4.27694C22.9784 3.45194 22.3095 2.78317 21.4846 2.78317H3.4508C2.6258 2.78317 1.95703 3.45194 1.95703 4.27694V9.12006H4.23928V8.09505Z" fill="#666666"/>
<path id="Vector_4" d="M6.43908 7.30435C6.00309 7.30435 5.64844 7.65901 5.64844 8.09499V9.12001H11.7675V8.09499C11.7675 7.65901 11.4128 7.30435 10.9768 7.30435H6.43908Z" fill="#666666"/>
<path id="Vector_5" d="M0.46875 14.9201V21.3896H1.875V18.8257H23.0625V21.3896H24.4688V14.9201H0.46875Z" fill="#666666"/>
</g>
</g>
<defs>
<clipPath id="clip0_17864_1675">
<rect width="24" height="24" fill="white" transform="translate(0.46875 0.0864258)"/>
</clipPath>
</defs>
</svg>
