<svg width="25" height="25" viewBox="0 0 25 25" fill="none" xmlns="http://www.w3.org/2000/svg">
<g id="furniture (1) 1" clip-path="url(#clip0_17864_1687)">
<path id="Vector" d="M24.0938 8.05127H0.84375C0.636292 8.05127 0.46875 7.88373 0.46875 7.67627V6.17554C0.46875 5.96808 0.636292 5.80054 0.84375 5.80054H24.0938C24.3012 5.80054 24.4688 5.96808 24.4688 6.17554V7.67627C24.4688 7.88373 24.3012 8.05127 24.0938 8.05127ZM1.21875 7.30127H23.7188V6.55054H1.21875V7.30127Z" fill="#666666"/>
<path id="Vector_2" d="M1.21875 19.683C1.01129 19.683 0.84375 19.5155 0.84375 19.308V7.7431C0.84375 7.53564 1.01129 7.3681 1.21875 7.3681C1.42621 7.3681 1.59375 7.53564 1.59375 7.7431V19.308C1.59375 19.5155 1.42621 19.683 1.21875 19.683Z" fill="#666666"/>
<path id="Vector_3" d="M2.34375 19.683C2.13629 19.683 1.96875 19.5155 1.96875 19.308V7.7431C1.96875 7.53564 2.13629 7.3681 2.34375 7.3681C2.55121 7.3681 2.71875 7.53564 2.71875 7.7431V19.308C2.71875 19.5155 2.55121 19.683 2.34375 19.683Z" fill="#666666"/>
<path id="Vector_4" d="M22.5938 19.683C22.3863 19.683 22.2188 19.5155 22.2188 19.308V7.7431C22.2188 7.53564 22.3863 7.3681 22.5938 7.3681C22.8012 7.3681 22.9688 7.53564 22.9688 7.7431V19.308C22.9688 19.5155 22.8012 19.683 22.5938 19.683Z" fill="#666666"/>
<path id="Vector_5" d="M23.7188 19.683C23.5113 19.683 23.3438 19.5155 23.3438 19.308V7.7431C23.3438 7.53564 23.5113 7.3681 23.7188 7.3681C23.9262 7.3681 24.0938 7.53564 24.0938 7.7431V19.308C24.0938 19.5155 23.9262 19.683 23.7188 19.683Z" fill="#666666"/>
<path id="Vector_6" d="M2.34375 19.683H1.21875C1.01129 19.683 0.84375 19.5155 0.84375 19.308C0.84375 19.1006 1.01129 18.933 1.21875 18.933H2.34375C2.55121 18.933 2.71875 19.1006 2.71875 19.308C2.71875 19.5155 2.55121 19.683 2.34375 19.683Z" fill="#666666"/>
<path id="Vector_7" d="M23.7188 19.683H22.5938C22.3863 19.683 22.2188 19.5155 22.2188 19.308C22.2188 19.1006 22.3863 18.933 22.5938 18.933H23.7188C23.9262 18.933 24.0938 19.1006 24.0938 19.308C24.0938 19.5155 23.9262 19.683 23.7188 19.683Z" fill="#666666"/>
<path id="Vector_8" d="M22.5938 13.3058H2.34375C2.13629 13.3058 1.96875 13.1381 1.96875 12.9308C1.96875 12.7234 2.13629 12.5558 2.34375 12.5558H22.5938C22.8012 12.5558 22.9688 12.7234 22.9688 12.9308C22.9688 13.1381 22.8012 13.3058 22.5938 13.3058Z" fill="#666666"/>
<path id="Vector_9" d="M22.5938 14.4316H2.34375C2.13629 14.4316 1.96875 14.2639 1.96875 14.0566C1.96875 13.8491 2.13629 13.6816 2.34375 13.6816H22.5938C22.8012 13.6816 22.9688 13.8491 22.9688 14.0566C22.9688 14.2639 22.8012 14.4316 22.5938 14.4316Z" fill="#666666"/>
<path id="Vector_10" d="M3.84375 13.3066C3.63629 13.3066 3.46875 13.1389 3.46875 12.9316C3.46875 11.8976 4.30957 11.0566 5.34338 11.0566C5.55066 11.0566 5.71838 11.2241 5.71838 11.4316C5.71838 11.6389 5.55066 11.8066 5.34338 11.8066C4.72357 11.8066 4.21875 12.3112 4.21875 12.9316C4.21875 13.1389 4.05103 13.3066 3.84375 13.3066Z" fill="#666666"/>
<path id="Vector_11" d="M7.59338 13.3066C7.38593 13.3066 7.21838 13.1389 7.21838 12.9316C7.21838 12.3112 6.71356 11.8066 6.09375 11.8066C5.88647 11.8066 5.71875 11.6389 5.71875 11.4316C5.71875 11.2241 5.88647 11.0566 6.09375 11.0566C7.12756 11.0566 7.96838 11.8976 7.96838 12.9316C7.96838 13.1389 7.80084 13.3066 7.59338 13.3066Z" fill="#666666"/>
<path id="Vector_12" d="M4.21875 12.3147C4.01129 12.3147 3.84375 12.147 3.84375 11.9397V9.93158C3.84375 9.72412 4.01129 9.55658 4.21875 9.55658C4.42603 9.55658 4.59375 9.72412 4.59375 9.93158V11.9397C4.59375 12.147 4.42603 12.3147 4.21875 12.3147Z" fill="#666666"/>
<path id="Vector_13" d="M7.21875 12.3147C7.01129 12.3147 6.84375 12.147 6.84375 11.9397V9.93158C6.84375 9.72412 7.01129 9.55658 7.21875 9.55658C7.42603 9.55658 7.59375 9.72412 7.59375 9.93158V11.9397C7.59375 12.147 7.42603 12.3147 7.21875 12.3147Z" fill="#666666"/>
<path id="Vector_14" d="M4.96875 10.6823C4.76129 10.6823 4.59375 10.5146 4.59375 10.3073V9.18158C4.59375 8.97412 4.76129 8.80658 4.96875 8.80658C5.17621 8.80658 5.34375 8.97412 5.34375 9.18158V10.3073C5.34375 10.5146 5.17621 10.6823 4.96875 10.6823Z" fill="#666666"/>
<path id="Vector_15" d="M6.46875 9.55658H4.96875C4.76129 9.55658 4.59375 9.38885 4.59375 9.18158C4.59375 8.97412 4.76129 8.80658 4.96875 8.80658H6.46875C6.67621 8.80658 6.84375 8.97412 6.84375 9.18158C6.84375 9.38885 6.67621 9.55658 6.46875 9.55658Z" fill="#666666"/>
<path id="Vector_16" d="M6.46875 10.6823C6.26129 10.6823 6.09375 10.5146 6.09375 10.3073V9.18158C6.09375 8.97412 6.26129 8.80658 6.46875 8.80658C6.67621 8.80658 6.84375 8.97412 6.84375 9.18158V10.3073C6.84375 10.5146 6.67621 10.6823 6.46875 10.6823Z" fill="#666666"/>
<path id="Vector_17" d="M4.96948 10.3066H4.21875C4.01129 10.3066 3.84375 10.1389 3.84375 9.93158C3.84375 9.72412 4.01129 9.55658 4.21875 9.55658H4.96948C5.17694 9.55658 5.34448 9.72412 5.34448 9.93158C5.34448 10.1389 5.17694 10.3066 4.96948 10.3066Z" fill="#666666"/>
<path id="Vector_18" d="M7.21729 10.3066H6.46875C6.26129 10.3066 6.09375 10.1389 6.09375 9.93158C6.09375 9.72412 6.26129 9.55658 6.46875 9.55658H7.21729C7.42456 9.55658 7.59229 9.72412 7.59229 9.93158C7.59229 10.1389 7.42456 10.3066 7.21729 10.3066Z" fill="#666666"/>
<path id="Vector_19" d="M6.09521 11.8066H5.34375C5.13629 11.8066 4.96875 11.6389 4.96875 11.4316C4.96875 11.2241 5.13629 11.0566 5.34375 11.0566H6.09521C6.30267 11.0566 6.47021 11.2241 6.47021 11.4316C6.47021 11.6389 6.30267 11.8066 6.09521 11.8066Z" fill="#666666"/>
<path id="Vector_20" d="M8.71875 13.3066C8.51129 13.3066 8.34375 13.1389 8.34375 12.9316C8.34375 11.8976 9.18457 11.0566 10.2184 11.0566C10.4257 11.0566 10.5934 11.2241 10.5934 11.4316C10.5934 11.6389 10.4257 11.8066 10.2184 11.8066C9.59857 11.8066 9.09375 12.3112 9.09375 12.9316C9.09375 13.1389 8.92603 13.3066 8.71875 13.3066Z" fill="#666666"/>
<path id="Vector_21" d="M12.4684 13.3066C12.2609 13.3066 12.0934 13.1389 12.0934 12.9316C12.0934 12.3112 11.5886 11.8066 10.9688 11.8066C10.7615 11.8066 10.5938 11.6389 10.5938 11.4316C10.5938 11.2241 10.7615 11.0566 10.9688 11.0566C12.0026 11.0566 12.8434 11.8976 12.8434 12.9316C12.8434 13.1389 12.6758 13.3066 12.4684 13.3066Z" fill="#666666"/>
<path id="Vector_22" d="M9.09375 12.3147C8.88629 12.3147 8.71875 12.147 8.71875 11.9397V9.93158C8.71875 9.72412 8.88629 9.55658 9.09375 9.55658C9.30103 9.55658 9.46875 9.72412 9.46875 9.93158V11.9397C9.46875 12.147 9.30103 12.3147 9.09375 12.3147Z" fill="#666666"/>
<path id="Vector_23" d="M12.0938 12.3147C11.8863 12.3147 11.7188 12.147 11.7188 11.9397V9.93158C11.7188 9.72412 11.8863 9.55658 12.0938 9.55658C12.301 9.55658 12.4688 9.72412 12.4688 9.93158V11.9397C12.4688 12.147 12.301 12.3147 12.0938 12.3147Z" fill="#666666"/>
<path id="Vector_24" d="M9.84375 10.6823C9.63629 10.6823 9.46875 10.5146 9.46875 10.3073V9.18158C9.46875 8.97412 9.63629 8.80658 9.84375 8.80658C10.0512 8.80658 10.2188 8.97412 10.2188 9.18158V10.3073C10.2188 10.5146 10.0512 10.6823 9.84375 10.6823Z" fill="#666666"/>
<path id="Vector_25" d="M11.3438 9.55658H9.84375C9.63629 9.55658 9.46875 9.38885 9.46875 9.18158C9.46875 8.97412 9.63629 8.80658 9.84375 8.80658H11.3438C11.5512 8.80658 11.7188 8.97412 11.7188 9.18158C11.7188 9.38885 11.5512 9.55658 11.3438 9.55658Z" fill="#666666"/>
<path id="Vector_26" d="M11.3438 10.6823C11.1363 10.6823 10.9688 10.5146 10.9688 10.3073V9.18158C10.9688 8.97412 11.1363 8.80658 11.3438 8.80658C11.5512 8.80658 11.7188 8.97412 11.7188 9.18158V10.3073C11.7188 10.5146 11.5512 10.6823 11.3438 10.6823Z" fill="#666666"/>
<path id="Vector_27" d="M9.84448 10.3066H9.09375C8.88629 10.3066 8.71875 10.1389 8.71875 9.93158C8.71875 9.72412 8.88629 9.55658 9.09375 9.55658H9.84448C10.0519 9.55658 10.2195 9.72412 10.2195 9.93158C10.2195 10.1389 10.0519 10.3066 9.84448 10.3066Z" fill="#666666"/>
<path id="Vector_28" d="M12.0923 10.3066H11.3438C11.1363 10.3066 10.9688 10.1389 10.9688 9.93158C10.9688 9.72412 11.1363 9.55658 11.3438 9.55658H12.0923C12.2996 9.55658 12.4673 9.72412 12.4673 9.93158C12.4673 10.1389 12.2996 10.3066 12.0923 10.3066Z" fill="#666666"/>
<path id="Vector_29" d="M10.9702 11.8066H10.2188C10.0113 11.8066 9.84375 11.6389 9.84375 11.4316C9.84375 11.2241 10.0113 11.0566 10.2188 11.0566H10.9702C11.1777 11.0566 11.3452 11.2241 11.3452 11.4316C11.3452 11.6389 11.1777 11.8066 10.9702 11.8066Z" fill="#666666"/>
<path id="Vector_30" d="M12.4766 18.9323C12.2691 18.9323 12.1016 18.7646 12.1016 18.5573C12.1016 17.9366 12.6068 17.4316 13.2273 17.4316C13.4348 17.4316 13.6023 17.5991 13.6023 17.8066C13.6023 18.0139 13.4348 18.1816 13.2273 18.1816C13.02 18.1816 12.8516 18.3499 12.8516 18.5573C12.8516 18.7646 12.6837 18.9323 12.4766 18.9323Z" fill="#666666"/>
<path id="Vector_31" d="M16.2266 18.9323C16.0193 18.9323 15.8516 18.7646 15.8516 18.5573C15.8516 18.3502 15.6837 18.1823 15.4766 18.1823C15.2693 18.1823 15.1016 18.0146 15.1016 17.8073C15.1016 17.5999 15.2693 17.4323 15.4766 17.4323C16.0969 17.4323 16.6016 17.937 16.6016 18.5573C16.6016 18.7646 16.434 18.9323 16.2266 18.9323Z" fill="#666666"/>
<path id="Vector_32" d="M16.2277 19.683H12.4766C12.2691 19.683 12.1016 19.5155 12.1016 19.308C12.1016 19.1006 12.2691 18.933 12.4766 18.933H16.228C16.4355 18.933 16.603 19.1006 16.603 19.308C16.603 19.5155 16.4351 19.683 16.2277 19.683Z" fill="#666666"/>
<path id="Vector_33" d="M15.5061 18.1816H13.1953C12.988 18.1816 12.8203 18.0139 12.8203 17.8066C12.8203 17.5991 12.988 17.4316 13.1953 17.4316H15.5061C15.7136 17.4316 15.8811 17.5991 15.8811 17.8066C15.8811 18.0139 15.7136 18.1816 15.5061 18.1816Z" fill="#666666"/>
<path id="Vector_34" d="M13.2266 18.1816C13.0191 18.1816 12.8516 18.0139 12.8516 17.8066V15.5573C12.8516 15.3499 13.0191 15.1823 13.2266 15.1823C13.434 15.1823 13.6016 15.3499 13.6016 15.5573V17.8066C13.6016 18.0139 13.434 18.1816 13.2266 18.1816Z" fill="#666666"/>
<path id="Vector_35" d="M15.4766 18.1823C15.2693 18.1823 15.1016 18.0146 15.1016 17.8073V15.5573C15.1016 15.3499 15.2693 15.1823 15.4766 15.1823C15.684 15.1823 15.8516 15.3499 15.8516 15.5573V17.8073C15.8516 18.0146 15.684 18.1823 15.4766 18.1823Z" fill="#666666"/>
<path id="Vector_36" d="M12.4766 19.683C12.2691 19.683 12.1016 19.5155 12.1016 19.308V18.5573C12.1016 18.3499 12.2691 18.1823 12.4766 18.1823C12.684 18.1823 12.8516 18.3499 12.8516 18.5573V19.308C12.8516 19.5155 12.6837 19.683 12.4766 19.683Z" fill="#666666"/>
<path id="Vector_37" d="M16.2266 19.683C16.0193 19.683 15.8516 19.5155 15.8516 19.308V18.5573C15.8516 18.3499 16.0193 18.1823 16.2266 18.1823C16.434 18.1823 16.6016 18.3499 16.6016 18.5573V19.308C16.6016 19.5155 16.434 19.683 16.2266 19.683Z" fill="#666666"/>
<path id="Vector_38" d="M15.478 15.9323H13.2266C13.0191 15.9323 12.8516 15.7646 12.8516 15.5573C12.8516 15.3499 13.0191 15.1823 13.2266 15.1823H15.478C15.6855 15.1823 15.853 15.3499 15.853 15.5573C15.853 15.7646 15.6855 15.9323 15.478 15.9323Z" fill="#666666"/>
<path id="Vector_39" d="M15.8527 17.0573H12.8516C12.6441 17.0573 12.4766 16.8896 12.4766 16.6823C12.4766 16.4749 12.6441 16.3073 12.8516 16.3073H15.8527C16.0601 16.3073 16.2277 16.4749 16.2277 16.6823C16.2277 16.8896 16.0601 17.0573 15.8527 17.0573Z" fill="#666666"/>
<path id="Vector_40" d="M17.3516 18.9323C17.1441 18.9323 16.9766 18.7646 16.9766 18.5573C16.9766 17.9366 17.4818 17.4316 18.1023 17.4316C18.3098 17.4316 18.4773 17.5991 18.4773 17.8066C18.4773 18.0139 18.3098 18.1816 18.1023 18.1816C17.895 18.1816 17.7266 18.3499 17.7266 18.5573C17.7266 18.7646 17.5587 18.9323 17.3516 18.9323Z" fill="#666666"/>
<path id="Vector_41" d="M21.1016 18.9323C20.8943 18.9323 20.7266 18.7646 20.7266 18.5573C20.7266 18.3502 20.5587 18.1823 20.3516 18.1823C20.1443 18.1823 19.9766 18.0146 19.9766 17.8073C19.9766 17.5999 20.1443 17.4323 20.3516 17.4323C20.9719 17.4323 21.4766 17.937 21.4766 18.5573C21.4766 18.7646 21.309 18.9323 21.1016 18.9323Z" fill="#666666"/>
<path id="Vector_42" d="M21.1027 19.683H17.3516C17.1441 19.683 16.9766 19.5155 16.9766 19.308C16.9766 19.1006 17.1441 18.933 17.3516 18.933H21.103C21.3105 18.933 21.478 19.1006 21.478 19.308C21.478 19.5155 21.3101 19.683 21.1027 19.683Z" fill="#666666"/>
<path id="Vector_43" d="M20.3811 18.1816H18.0703C17.863 18.1816 17.6953 18.0139 17.6953 17.8066C17.6953 17.5991 17.863 17.4316 18.0703 17.4316H20.3811C20.5886 17.4316 20.7561 17.5991 20.7561 17.8066C20.7561 18.0139 20.5886 18.1816 20.3811 18.1816Z" fill="#666666"/>
<path id="Vector_44" d="M18.1016 18.1816C17.8941 18.1816 17.7266 18.0139 17.7266 17.8066V15.5573C17.7266 15.3499 17.8941 15.1823 18.1016 15.1823C18.309 15.1823 18.4766 15.3499 18.4766 15.5573V17.8066C18.4766 18.0139 18.309 18.1816 18.1016 18.1816Z" fill="#666666"/>
<path id="Vector_45" d="M20.3516 18.1823C20.1443 18.1823 19.9766 18.0146 19.9766 17.8073V15.5573C19.9766 15.3499 20.1443 15.1823 20.3516 15.1823C20.559 15.1823 20.7266 15.3499 20.7266 15.5573V17.8073C20.7266 18.0146 20.559 18.1823 20.3516 18.1823Z" fill="#666666"/>
<path id="Vector_46" d="M17.3516 19.683C17.1441 19.683 16.9766 19.5155 16.9766 19.308V18.5573C16.9766 18.3499 17.1441 18.1823 17.3516 18.1823C17.559 18.1823 17.7266 18.3499 17.7266 18.5573V19.308C17.7266 19.5155 17.5587 19.683 17.3516 19.683Z" fill="#666666"/>
<path id="Vector_47" d="M21.1016 19.683C20.8943 19.683 20.7266 19.5155 20.7266 19.308V18.5573C20.7266 18.3499 20.8943 18.1823 21.1016 18.1823C21.309 18.1823 21.4766 18.3499 21.4766 18.5573V19.308C21.4766 19.5155 21.309 19.683 21.1016 19.683Z" fill="#666666"/>
<path id="Vector_48" d="M20.353 15.9323H18.1016C17.8941 15.9323 17.7266 15.7646 17.7266 15.5573C17.7266 15.3499 17.8941 15.1823 18.1016 15.1823H20.353C20.5605 15.1823 20.728 15.3499 20.728 15.5573C20.728 15.7646 20.5605 15.9323 20.353 15.9323Z" fill="#666666"/>
<path id="Vector_49" d="M20.7277 17.0573H17.7266C17.5191 17.0573 17.3516 16.8896 17.3516 16.6823C17.3516 16.4749 17.5191 16.3073 17.7266 16.3073H20.7277C20.9351 16.3073 21.1027 16.4749 21.1027 16.6823C21.1027 16.8896 20.9351 17.0573 20.7277 17.0573Z" fill="#666666"/>
</g>
<defs>
<clipPath id="clip0_17864_1687">
<rect width="24" height="24" fill="white" transform="translate(0.46875 0.738037)"/>
</clipPath>
</defs>
</svg>
