<svg width="25" height="25" viewBox="0 0 25 25" fill="none" xmlns="http://www.w3.org/2000/svg">
<g id="kitchen (1) 1" clip-path="url(#clip0_17864_1640)">
<g id="Group">
<g id="Group_2">
<g id="Group_3">
<path id="Vector" d="M0.472656 24.7522H10.3586V19.083H0.472656V24.7522ZM2.63481 20.5511H8.24331V21.9567H2.63481V20.5511Z" fill="#666666"/>
<path id="Vector_2" d="M0.472656 17.6774H10.3586V12.1019H0.472656V17.6774ZM2.63481 13.5975H8.24331V15.0031H2.63481V13.5975Z" fill="#666666"/>
<path id="Vector_3" d="M11.7656 24.7522H24.4628V12.1019H11.7656V24.7522ZM20.1992 13.5975H21.6048V15.0378H20.1992V13.5975ZM17.388 13.5975H18.7936V15.0378H17.388V13.5975ZM14.5768 13.5975H15.9824V15.0378H14.5768V13.5975ZM14.5768 16.2952H21.6048V21.941H14.5768V16.2952Z" fill="#666666"/>
<path id="Vector_4" d="M20.1992 3.99271V0.752197H15.9824V3.99506L11.7656 6.8062V9.29071H24.4628V6.80385L20.1992 3.99271Z" fill="#666666"/>
</g>
</g>
</g>
</g>
<defs>
<clipPath id="clip0_17864_1640">
<rect width="24" height="24" fill="white" transform="translate(0.46875 0.752197)"/>
</clipPath>
</defs>
</svg>
