<svg width="67" height="42" viewBox="0 0 67 42" fill="none" xmlns="http://www.w3.org/2000/svg">
<path d="M42.5433 4.42676H24.4336V36.9667H42.5433V4.42676Z" fill="#FF5F00"/>
<path d="M25.5836 20.6968C25.5836 14.0853 28.6881 8.22124 33.4598 4.42682C29.9529 1.66725 25.5261 0 20.6968 0C9.25607 0 0 9.25607 0 20.6968C0 32.1375 9.25607 41.3936 20.6968 41.3936C25.5261 41.3936 29.9529 39.7264 33.4598 36.9668C28.6881 33.2299 25.5836 27.3083 25.5836 20.6968Z" fill="#EB001B"/>
<path d="M66.9794 20.6968C66.9794 32.1375 57.7233 41.3936 46.2826 41.3936C41.4533 41.3936 37.0265 39.7264 33.5195 36.9668C38.3488 33.1724 41.3958 27.3083 41.3958 20.6968C41.3958 14.0853 38.2913 8.22124 33.5195 4.42682C37.0265 1.66725 41.4533 0 46.2826 0C57.7233 0 66.9794 9.31356 66.9794 20.6968Z" fill="#F79E1B"/>
</svg>
