<svg width="107" height="38" viewBox="0 0 107 38" fill="none" xmlns="http://www.w3.org/2000/svg">
<g id="Frame 14">
<g id="Group 8908">
<g id="g10">
<g id="g12">
<path id="path14" d="M13.0498 0.294189H4.76855C4.20177 0.294189 3.71988 0.836859 3.63145 1.57429L0.282134 29.5572C0.215518 30.1091 0.540108 30.6071 0.965064 30.6071H4.91865C5.48533 30.6071 5.96723 30.0646 6.05565 29.3258L6.95896 21.7785C7.0462 21.0395 7.52928 20.497 8.09477 20.497H10.7164C16.1714 20.497 19.3197 17.0184 20.142 10.1252C20.5125 7.10938 20.1577 4.73989 19.086 3.08043C17.909 1.25801 15.8215 0.294189 13.0498 0.294189ZM14.0052 10.5146C13.5523 14.4303 11.2819 14.4303 9.0865 14.4303H7.8369L8.71355 7.11747C8.76567 6.67541 9.05621 6.34991 9.39531 6.34991H9.96801C11.4634 6.34991 12.8742 6.34991 13.6031 7.47313C14.0379 8.14341 14.1711 9.13905 14.0052 10.5146Z" fill="#283B82"/>
<path id="path16" d="M37.8033 10.3884H33.8378C33.5001 10.3884 33.2083 10.7139 33.156 11.156L32.9806 12.6176L32.7032 12.0877C31.8447 10.4458 29.9302 9.89697 28.0194 9.89697C23.6373 9.89697 19.8944 14.2706 19.1655 20.4059C18.7865 23.4664 19.3254 26.3929 20.6428 28.4336C21.8512 30.31 23.5803 31.0919 25.6378 31.0919C29.1687 31.0919 31.1267 28.1003 31.1267 28.1003L30.9499 29.5523C30.8832 30.1076 31.2078 30.6054 31.6305 30.6054H35.2024C35.7703 30.6054 36.2498 30.0628 36.3395 29.3242L38.4827 11.4383C38.5507 10.8878 38.2273 10.3884 37.8033 10.3884ZM32.2757 20.5592C31.8932 23.5445 30.0949 25.5489 27.8017 25.5489C26.6501 25.5489 25.7297 25.0621 25.1388 24.1398C24.5527 23.2238 24.3299 21.9202 24.5164 20.4681C24.8736 17.5082 26.7021 15.4387 28.9603 15.4387C30.0866 15.4387 31.0019 15.9317 31.605 16.8619C32.2093 17.8017 32.4488 19.1134 32.2757 20.5592Z" fill="#283B82"/>
<path id="path18" d="M58.9256 10.3884H54.9406C54.5604 10.3884 54.2032 10.6374 53.9876 11.0539L48.4914 21.7225L46.1617 11.4703C46.0152 10.8288 45.566 10.3884 45.0574 10.3884H41.1414C40.6654 10.3884 40.335 11.0011 40.4863 11.5915L44.8757 28.5661L40.749 36.2429C40.4244 36.8475 40.7513 37.6792 41.3122 37.6792H45.2924C45.6701 37.6792 46.0238 37.4365 46.238 37.028L59.4923 11.8166C59.8096 11.2133 59.4839 10.3884 58.9256 10.3884Z" fill="#283B82"/>
<path id="path20" d="M72.12 0.294189H63.8376C63.2722 0.294189 62.7901 0.836859 62.7017 1.57429L59.3524 29.5572C59.286 30.1091 59.6104 30.6071 60.033 30.6071H64.2833C64.6779 30.6071 65.0159 30.2275 65.0776 29.7104L66.028 21.7785C66.1152 21.0395 66.5985 20.497 67.1639 20.497H69.7843C75.2404 20.497 78.3876 17.0184 79.211 10.1252C79.5829 7.10938 79.2257 4.73989 78.1539 3.08043C76.9781 1.25801 74.8918 0.294189 72.12 0.294189ZM73.0755 10.5146C72.6238 14.4303 70.3536 14.4303 68.1568 14.4303H66.9085L67.7864 7.11747C67.8385 6.67541 68.1265 6.34991 68.4668 6.34991H69.0395C70.5339 6.34991 71.9457 6.34991 72.6746 7.47313C73.1094 8.14341 73.2413 9.13905 73.0755 10.5146Z" fill="#469BDB"/>
<path id="path22" d="M96.8726 10.3884H92.9094C92.5691 10.3884 92.2795 10.7139 92.2288 11.156L92.0532 12.6176L91.7748 12.0877C90.9163 10.4458 89.003 9.89697 87.0923 9.89697C82.7099 9.89697 78.9685 14.2706 78.2393 20.4059C77.8616 23.4664 78.398 26.3929 79.7155 28.4336C80.9265 30.31 82.653 31.0919 84.7103 31.0919C88.2413 31.0919 90.1993 28.1003 90.1993 28.1003L90.0224 29.5523C89.956 30.1076 90.2804 30.6054 90.7056 30.6054H94.2764C94.8419 30.6054 95.3239 30.0628 95.4123 29.3242L97.5568 11.4383C97.622 10.8878 97.2976 10.3884 96.8726 10.3884ZM91.3448 20.5592C90.9645 23.5445 89.1639 25.5489 86.8707 25.5489C85.7214 25.5489 84.7987 25.0621 84.2078 24.1398C83.6219 23.2238 83.4014 21.9202 83.5856 20.4681C83.9451 17.5082 85.7712 15.4387 88.0296 15.4387C89.1556 15.4387 90.0709 15.9317 90.674 16.8619C91.2806 17.8017 91.5203 19.1134 91.3448 20.5592Z" fill="#469BDB"/>
<path id="path24" d="M101.544 1.0619L98.1454 29.5572C98.0789 30.1091 98.4033 30.6071 98.826 30.6071H102.243C102.811 30.6071 103.293 30.0646 103.38 29.3258L106.732 1.34455C106.798 0.792233 106.474 0.292847 106.051 0.292847H102.225C101.887 0.29418 101.597 0.620111 101.544 1.0619Z" fill="#469BDB"/>
</g>
</g>
</g>
</g>
</svg>
