<svg width="25" height="25" viewBox="0 0 25 25" fill="none" xmlns="http://www.w3.org/2000/svg">
<g id="restaurant 1" clip-path="url(#clip0_17864_1653)">
<g id="Group">
<path id="Vector" d="M20.0913 10.3104C20.3722 10.3104 20.5999 10.0827 20.5999 9.80181V8.17036C20.5999 7.88946 20.3722 7.66177 20.0913 7.66177L19.3675 7.66618L16.9922 10.3104H20.0913Z" fill="#666666"/>
<path id="Vector_2" d="M4.84452 10.3102H7.96804L5.55159 7.66168H4.84452C4.56363 7.66168 4.33594 7.88937 4.33594 8.17027V9.80159C4.33594 10.0825 4.56363 10.3102 4.84452 10.3102Z" fill="#666666"/>
<path id="Vector_3" d="M12.7612 12.933L17.4744 7.66177H7.46484L12.2555 12.935C12.3913 13.0845 12.6266 13.0836 12.7612 12.933Z" fill="#666666"/>
<path id="Vector_4" d="M14.0849 20.351H13.2093V14.4323C12.9993 14.5536 12.7593 14.6198 12.5117 14.6208C12.5098 14.6208 12.508 14.6208 12.5061 14.6208C12.2567 14.6208 12.0146 14.5545 11.8029 14.4323V20.351H10.8477C10.4594 20.351 10.1445 20.6658 10.1445 21.0541C10.1445 21.4425 10.4594 21.7573 10.8477 21.7573H14.0849C14.4733 21.7573 14.7881 21.4425 14.7881 21.0541C14.7881 20.6658 14.4732 20.351 14.0849 20.351Z" fill="#666666"/>
<path id="Vector_5" d="M6.39844 12.2667H1.8751V3.93151C1.8751 3.54317 1.56027 3.22833 1.17193 3.22833C0.783585 3.22833 0.46875 3.54317 0.46875 3.93151V21.1104C0.46875 21.4988 0.783585 21.8136 1.17193 21.8136C1.56027 21.8136 1.8751 21.4988 1.8751 21.1104V15.8581H6.9878V21.1104C6.9878 21.4988 7.30263 21.8136 7.69098 21.8136C8.07932 21.8136 8.39415 21.4988 8.39415 21.1104V14.2624C8.39415 13.1619 7.49887 12.2667 6.39844 12.2667Z" fill="#666666"/>
<path id="Vector_6" d="M23.7659 3.22833C23.3775 3.22833 23.0627 3.54317 23.0627 3.93151V12.2667H18.6441C17.5437 12.2667 16.6484 13.162 16.6484 14.2624V21.1104C16.6484 21.4988 16.9633 21.8136 17.3516 21.8136C17.7399 21.8136 18.0548 21.4988 18.0548 21.1104V15.8569H23.0627V21.1104C23.0627 21.4988 23.3776 21.8136 23.7659 21.8136C24.1542 21.8136 24.4691 21.4988 24.4691 21.1104V3.93151C24.469 3.54317 24.1542 3.22833 23.7659 3.22833Z" fill="#666666"/>
</g>
</g>
<defs>
<clipPath id="clip0_17864_1653">
<rect width="24" height="24" fill="white" transform="translate(0.46875 0.520996)"/>
</clipPath>
</defs>
</svg>
