<svg width="25" height="25" viewBox="0 0 25 25" fill="none" xmlns="http://www.w3.org/2000/svg">
<g id="sofa 1" clip-path="url(#clip0_17864_1629)">
<g id="Group">
<path id="Vector" d="M4.92188 12.0491H11.0625C11.6024 12.0491 12.0953 12.2532 12.4688 12.5879C12.8422 12.2531 13.3351 12.0491 13.875 12.0491H20.0156V4.50853C20.0156 4.12204 19.7064 3.80043 19.3199 3.79907C19.3141 3.79907 19.5598 3.79907 5.625 3.79907C5.22487 3.79907 4.92188 4.1271 4.92188 4.50853V12.0491Z" fill="#666666"/>
<path id="Vector_2" d="M13.1719 14.1584V15.7991H20.0156C20.0156 14.7605 20.0156 14.5472 20.0156 13.4553H13.875C13.4873 13.4553 13.1719 13.7707 13.1719 14.1584Z" fill="#666666"/>
<path id="Vector_3" d="M22.1959 8.67515C21.7625 8.68865 21.4219 9.05221 21.4219 9.4858C21.4219 9.59708 21.4219 16.9016 21.4219 16.5022C21.4219 16.8905 21.1071 17.2053 20.7188 17.2053C20.1566 17.2053 3.68498 17.2053 4.21875 17.2053C3.83044 17.2053 3.51562 16.8905 3.51562 16.5022C3.51562 16.2428 3.51562 9.41816 3.51562 9.4858C3.51562 9.05221 3.17498 8.68865 2.74158 8.67515C1.49236 8.63624 0.46875 9.63561 0.46875 10.8772V18.0959C0.46875 19.2609 1.41314 20.2053 2.57812 20.2053H3.51562V20.9823C3.51562 21.3609 3.80658 21.6867 4.18477 21.7045C4.58855 21.7236 4.92188 21.4018 4.92188 21.0022V20.2053H20.0156V20.9823C20.0156 21.3609 20.3066 21.6867 20.6848 21.7045C21.0885 21.7236 21.4219 21.4018 21.4219 21.0022V20.2053H22.3594C23.5244 20.2053 24.4688 19.2609 24.4688 18.0959V10.9168C24.4688 9.61879 23.4371 8.63647 22.1959 8.67515Z" fill="#666666"/>
<path id="Vector_4" d="M11.7656 14.1584C11.7656 13.7707 11.4502 13.4553 11.0625 13.4553H4.92188V15.7991H11.7656V14.1584Z" fill="#666666"/>
</g>
</g>
<defs>
<clipPath id="clip0_17864_1629">
<rect width="24" height="24" fill="white" transform="translate(0.46875 0.752197)"/>
</clipPath>
</defs>
</svg>
