<svg width="99" height="35" viewBox="0 0 99 35" fill="none" xmlns="http://www.w3.org/2000/svg">
<g id="Uber_logo_2018 1" clip-path="url(#clip0_17825_1366)">
<g id="Group">
<path id="Vector" d="M6.57441 25.2684C6.98558 26.3668 7.55483 27.3059 8.28228 28.0858C9.00972 28.8659 9.87153 29.4627 10.8677 29.8766C11.864 30.2905 12.9472 30.4974 14.1174 30.4974C15.256 30.4974 16.3233 30.2825 17.3196 29.8526C18.3159 29.4228 19.1855 28.818 19.9287 28.0381C20.6719 27.2581 21.2491 26.327 21.6603 25.2446C22.0715 24.1622 22.277 22.9525 22.277 21.6154V0.986084H27.2582V34.4131H22.3245V31.3091C21.2175 32.4869 19.9129 33.3943 18.4106 34.0311C16.9083 34.6677 15.2876 34.9861 13.5481 34.9861C11.7769 34.9861 10.1245 34.6756 8.59058 34.0549C7.05675 33.4341 5.72835 32.5508 4.6057 31.4046C3.48304 30.2585 2.59741 28.8818 1.94911 27.274C1.30071 25.6664 0.976562 23.8757 0.976562 21.9018V0.986084H5.95771V21.6154C5.95771 22.9525 6.16324 24.1701 6.57441 25.2684Z" fill="#154444"/>
<path id="Vector_2" d="M35.8421 0.986084V13.163C36.9491 12.0488 38.23 11.1655 39.6848 10.5128C41.1396 9.86011 42.721 9.53382 44.4287 9.53382C46.1999 9.53382 47.8601 9.86803 49.4099 10.5366C50.9595 11.2051 52.3036 12.1124 53.4422 13.2586C54.5808 14.4047 55.4822 15.7576 56.1463 17.3175C56.8105 18.8775 57.1425 20.5329 57.1425 22.2839C57.1425 24.0347 56.8105 25.6822 56.1463 27.2262C55.4822 28.7702 54.5808 30.1153 53.4422 31.2612C52.3036 32.4074 50.9595 33.3147 49.4099 33.9832C47.8601 34.6518 46.1998 34.986 44.4287 34.986C42.7208 34.986 41.1317 34.6597 39.6611 34.007C38.1904 33.3544 36.9016 32.471 35.7947 31.3568V34.413H31.0508V0.986084H35.8421ZM36.3877 25.5788C36.8146 26.5976 37.4077 27.489 38.1667 28.253C38.9258 29.0171 39.8113 29.622 40.8233 30.0677C41.8354 30.5134 42.9265 30.7362 44.0967 30.7362C45.2353 30.7362 46.3105 30.5134 47.3225 30.0677C48.3346 29.622 49.2121 29.0172 49.9555 28.253C50.6987 27.4891 51.2917 26.5976 51.7344 25.5788C52.1772 24.5601 52.3986 23.4618 52.3986 22.2839C52.3986 21.1059 52.1772 19.9997 51.7344 18.965C51.2917 17.9303 50.6987 17.031 49.9555 16.267C49.2122 15.503 48.3347 14.9061 47.3225 14.4763C46.3104 14.0466 45.2352 13.8316 44.0967 13.8316C42.9582 13.8316 41.8829 14.0465 40.8709 14.4763C39.8588 14.9062 38.9733 15.503 38.2142 16.267C37.4552 17.031 36.8543 17.9303 36.4115 18.965C35.9687 19.9997 35.7474 21.1059 35.7474 22.2839C35.7473 23.4618 35.9608 24.5601 36.3877 25.5788Z" fill="#154444"/>
<path id="Vector_3" d="M59.8471 17.3652C60.4795 15.8371 61.3494 14.4922 62.4562 13.3302C63.563 12.1682 64.8757 11.2529 66.3937 10.5844C67.9118 9.91588 69.5564 9.58167 71.3274 9.58167C73.0669 9.58167 74.6799 9.90003 76.1664 10.5366C77.6527 11.1734 78.9336 12.0568 80.0089 13.187C81.0842 14.3171 81.9224 15.6542 82.5232 17.1982C83.1241 18.7422 83.4245 20.4216 83.4245 22.2362V23.8121H63.7371C63.8953 24.799 64.2116 25.7142 64.686 26.5577C65.1604 27.4013 65.7533 28.1336 66.4649 28.7544C67.1765 29.3752 67.983 29.8608 68.8844 30.2108C69.7857 30.561 70.7423 30.7362 71.7545 30.7362C74.6325 30.7362 76.9571 29.5423 78.7282 27.1546L82.1912 29.7332C80.9894 31.3569 79.5031 32.6303 77.732 33.5535C75.9608 34.4767 73.9684 34.9383 71.7546 34.9383C69.9518 34.9383 68.2678 34.6198 66.7022 33.9832C65.1367 33.3466 63.7768 32.4551 62.6225 31.309C61.4681 30.1629 60.5589 28.8179 59.8947 27.2739C59.2306 25.73 58.8984 24.0506 58.8984 22.236C58.8982 20.517 59.2146 18.8933 59.8471 17.3652ZM66.5124 15.4789C65.1682 16.6091 64.2748 18.1133 63.832 19.9916H78.5858C78.1747 18.1133 77.297 16.6091 75.9529 15.4789C74.6087 14.3489 73.0353 13.7838 71.2327 13.7838C69.4299 13.7838 67.8565 14.3489 66.5124 15.4789Z" fill="#154444"/>
<path id="Vector_4" d="M92.3916 16.0281C91.3796 17.1423 90.8735 18.6545 90.8735 20.5646V34.4131H86.082V10.0591H90.8259V13.0675C91.4269 12.0806 92.2097 11.3006 93.1742 10.7276C94.1388 10.1545 95.2853 9.86792 96.6137 9.86792H98.274V14.3567H96.2816C94.7003 14.3568 93.4036 14.9139 92.3916 16.0281Z" fill="#154444"/>
</g>
</g>
<defs>
<clipPath id="clip0_17825_1366">
<rect width="97.2975" height="34" fill="white" transform="translate(0.976562 0.986084)"/>
</clipPath>
</defs>
</svg>
