<svg width="25" height="25" viewBox="0 0 25 25" fill="none" xmlns="http://www.w3.org/2000/svg">
<g id="workplace 1" clip-path="url(#clip0_17864_1665)">
<g id="Group">
<path id="Vector" d="M24.4688 7.20276V2.51526C24.4688 1.61062 23.7328 0.874634 22.8281 0.874634H14.3906C13.486 0.874634 12.75 1.61062 12.75 2.51526V7.20276C12.75 8.1074 13.486 8.84338 14.3906 8.84338H16.3026L15.951 10.2496H12.0157L11.8728 7.10699C11.8215 5.97787 10.8959 5.09338 9.76561 5.09338H5.89069C4.76044 5.09338 3.83484 5.97787 3.78347 7.10699L3.64064 10.2496H1.17188C0.783562 10.2496 0.46875 10.5644 0.46875 10.9528V23.1403C0.46875 23.5286 0.783562 23.8434 1.17188 23.8434C1.56019 23.8434 1.875 23.5286 1.875 23.1403V14.4684H3.47297C3.52416 15.0472 3.76711 15.5869 4.17637 16.0152C4.59253 16.4506 5.1315 16.7196 5.7188 16.7917V17.984C5.7188 18.8091 6.33108 19.4935 7.12505 19.6076V21.2974L4.35375 22.0892C4.05183 22.1754 3.84375 22.4513 3.84375 22.7653V24.1715C3.84375 24.5598 4.15856 24.8746 4.54688 24.8746C4.93519 24.8746 5.25 24.5598 5.25 24.1715V23.2956L7.125 22.7599V23.7028C7.125 24.0911 7.43981 24.4059 7.82812 24.4059C8.21644 24.4059 8.53125 24.0911 8.53125 23.7028V22.7599L10.4062 23.2957V24.1715C10.4062 24.5598 10.7211 24.8746 11.1094 24.8746C11.4977 24.8746 11.8125 24.5598 11.8125 24.1715V22.7653C11.8125 22.4513 11.6044 22.1754 11.3025 22.0892L8.53125 21.2974V19.6077C9.32522 19.4936 9.9375 18.8091 9.9375 17.9841V16.7918C10.5248 16.7196 11.0638 16.4507 11.4799 16.0152C11.8891 15.587 12.1321 15.0473 12.1833 14.4684H13.6875V23.1403C13.6875 23.5286 14.0023 23.8434 14.3906 23.8434C14.7789 23.8434 15.0938 23.5286 15.0938 23.1403V21.0309H23.0625V23.1403C23.0625 23.5286 23.3773 23.8434 23.7656 23.8434C24.1539 23.8434 24.4688 23.5286 24.4688 23.1403V10.9528C24.4688 10.5644 24.1539 10.2496 23.7656 10.2496H21.2677L20.9161 8.84338H22.8281C23.7328 8.84338 24.4688 8.1074 24.4688 7.20276ZM3.51277 13.0621H1.875V11.6559H3.5767L3.51277 13.0621ZM8.53125 17.984C8.53125 18.1132 8.42611 18.2184 8.29688 18.2184H7.35938C7.23014 18.2184 7.125 18.1132 7.125 17.984V16.8121H8.53125V17.984ZM10.4632 15.0436C10.24 15.2772 9.93909 15.4059 9.61598 15.4059H6.04031C5.7172 15.4059 5.41631 15.2772 5.19309 15.0436C4.96983 14.81 4.85498 14.5035 4.86966 14.1808L5.18827 7.17079C5.20537 6.79448 5.51391 6.49963 5.89064 6.49963H9.76556C10.1423 6.49963 10.4509 6.79448 10.468 7.17084L10.7866 14.1808C10.8013 14.5036 10.6865 14.81 10.4632 15.0436ZM23.0625 19.6246H15.0938V14.4684H23.0625V19.6246ZM23.0625 11.6559V13.0621H12.1435L12.0795 11.6559H23.0625ZM17.4005 10.2496L17.7521 8.84338H19.4666L19.8182 10.2496H17.4005ZM14.3906 7.43713C14.2614 7.43713 14.1562 7.33199 14.1562 7.20276V2.51526C14.1562 2.38602 14.2614 2.28088 14.3906 2.28088H22.8281C22.9574 2.28088 23.0625 2.38602 23.0625 2.51526V7.20276C23.0625 7.33199 22.9574 7.43713 22.8281 7.43713H14.3906Z" fill="white"/>
<path id="Vector_2" d="M17.6719 17.2809H20.4844C20.8727 17.2809 21.1875 16.9661 21.1875 16.5778C21.1875 16.1894 20.8727 15.8746 20.4844 15.8746H17.6719C17.2836 15.8746 16.9688 16.1894 16.9688 16.5778C16.9688 16.9661 17.2836 17.2809 17.6719 17.2809Z" fill="white"/>
</g>
</g>
<defs>
<clipPath id="clip0_17864_1665">
<rect width="24" height="24" fill="white" transform="translate(0.46875 0.874634)"/>
</clipPath>
</defs>
</svg>
